<svg width="347" height="140" viewBox="0 0 347 140" fill="none" xmlns="http://www.w3.org/2000/svg">
<path d="M6.592 78L0.352 54.16H5.728L10.432 74.128H8.992L13.952 54.16H19.072L24.032 74.128H22.592L27.296 54.16H32.672L26.432 78H20.672L15.68 58.8H17.344L12.352 78H6.592ZM43.8385 78.384C41.9825 78.384 40.3718 77.9787 39.0065 77.168C37.6412 76.336 36.5852 75.2267 35.8385 73.84C35.0918 72.4533 34.7185 70.9173 34.7185 69.232C34.7185 67.4827 35.1025 65.9253 35.8705 64.56C36.6598 63.1947 37.7158 62.1173 39.0385 61.328C40.3612 60.5387 41.8545 60.144 43.5185 60.144C44.9052 60.144 46.1318 60.368 47.1985 60.816C48.2652 61.2427 49.1612 61.8507 49.8865 62.64C50.6332 63.4293 51.1985 64.3467 51.5825 65.392C51.9665 66.416 52.1585 67.536 52.1585 68.752C52.1585 69.0933 52.1372 69.4347 52.0945 69.776C52.0732 70.096 52.0198 70.3733 51.9345 70.608H38.8465V67.088H49.2145L46.9425 68.752C47.1558 67.8347 47.1452 67.024 46.9105 66.32C46.6758 65.5947 46.2598 65.0293 45.6625 64.624C45.0865 64.1973 44.3718 63.984 43.5185 63.984C42.6865 63.984 41.9718 64.1867 41.3745 64.592C40.7772 64.9973 40.3292 65.5947 40.0305 66.384C39.7318 67.1733 39.6145 68.1333 39.6785 69.264C39.5932 70.2453 39.7105 71.1093 40.0305 71.856C40.3505 72.6027 40.8412 73.1893 41.5025 73.616C42.1638 74.0213 42.9638 74.224 43.9025 74.224C44.7558 74.224 45.4812 74.0533 46.0785 73.712C46.6972 73.3707 47.1772 72.9013 47.5185 72.304L51.3585 74.128C51.0172 74.9813 50.4732 75.728 49.7265 76.368C49.0012 77.008 48.1372 77.5093 47.1345 77.872C46.1318 78.2133 45.0332 78.384 43.8385 78.384ZM56.585 78V53.776H61.385V78H56.585ZM75.0735 78.384C73.3242 78.384 71.7455 77.9893 70.3375 77.2C68.9508 76.3893 67.8415 75.2907 67.0095 73.904C66.1988 72.5173 65.7935 70.96 65.7935 69.232C65.7935 67.504 66.1988 65.9573 67.0095 64.592C67.8202 63.2053 68.9295 62.1173 70.3375 61.328C71.7455 60.5387 73.3242 60.144 75.0735 60.144C76.3748 60.144 77.5802 60.368 78.6895 60.816C79.7988 61.264 80.7482 61.8933 81.5375 62.704C82.3268 63.4933 82.8922 64.432 83.2335 65.52L79.0735 67.312C78.7748 66.4373 78.2628 65.744 77.5375 65.232C76.8335 64.72 76.0122 64.464 75.0735 64.464C74.2415 64.464 73.4948 64.6667 72.8335 65.072C72.1935 65.4773 71.6815 66.0427 71.2975 66.768C70.9348 67.4933 70.7535 68.3253 70.7535 69.264C70.7535 70.2027 70.9348 71.0347 71.2975 71.76C71.6815 72.4853 72.1935 73.0507 72.8335 73.456C73.4948 73.8613 74.2415 74.064 75.0735 74.064C76.0335 74.064 76.8655 73.808 77.5695 73.296C78.2735 72.784 78.7748 72.0907 79.0735 71.216L83.2335 73.04C82.9135 74.064 82.3588 74.9813 81.5695 75.792C80.7802 76.6027 79.8308 77.2427 78.7215 77.712C77.6122 78.16 76.3962 78.384 75.0735 78.384ZM96.332 78.384C94.604 78.384 93.0253 77.9893 91.596 77.2C90.188 76.4107 89.0573 75.3333 88.204 73.968C87.372 72.5813 86.956 71.0133 86.956 69.264C86.956 67.4933 87.372 65.9253 88.204 64.56C89.0573 63.1947 90.188 62.1173 91.596 61.328C93.0253 60.5387 94.604 60.144 96.332 60.144C98.06 60.144 99.628 60.5387 101.036 61.328C102.444 62.1173 103.564 63.1947 104.396 64.56C105.249 65.9253 105.676 67.4933 105.676 69.264C105.676 71.0133 105.249 72.5813 104.396 73.968C103.564 75.3333 102.444 76.4107 101.036 77.2C99.628 77.9893 98.06 78.384 96.332 78.384ZM96.332 74.064C97.2067 74.064 97.964 73.8613 98.604 73.456C99.2653 73.0507 99.7773 72.4853 100.14 71.76C100.524 71.0347 100.716 70.2027 100.716 69.264C100.716 68.3253 100.524 67.504 100.14 66.8C99.7773 66.0747 99.2653 65.5093 98.604 65.104C97.964 64.6773 97.2067 64.464 96.332 64.464C95.4573 64.464 94.6893 64.6773 94.028 65.104C93.3667 65.5093 92.844 66.0747 92.46 66.8C92.0973 67.504 91.916 68.3253 91.916 69.264C91.916 70.2027 92.0973 71.0347 92.46 71.76C92.844 72.4853 93.3667 73.0507 94.028 73.456C94.6893 73.8613 95.4573 74.064 96.332 74.064ZM110.104 78V60.528H114.584V64.784L114.104 64.08C114.36 62.736 114.978 61.744 115.96 61.104C116.941 60.464 118.114 60.144 119.48 60.144C120.93 60.144 122.2 60.5173 123.288 61.264C124.397 61.9893 125.09 62.9707 125.368 64.208L123.992 64.336C124.568 62.9067 125.389 61.8507 126.456 61.168C127.522 60.4853 128.77 60.144 130.2 60.144C131.458 60.144 132.568 60.4213 133.528 60.976C134.509 61.5307 135.277 62.3093 135.832 63.312C136.386 64.2933 136.664 65.4453 136.664 66.768V78H131.864V67.792C131.864 67.1093 131.736 66.5227 131.48 66.032C131.245 65.5413 130.904 65.1573 130.456 64.88C130.008 64.6027 129.464 64.464 128.824 64.464C128.205 64.464 127.661 64.6027 127.192 64.88C126.744 65.1573 126.392 65.5413 126.136 66.032C125.901 66.5227 125.784 67.1093 125.784 67.792V78H120.984V67.792C120.984 67.1093 120.856 66.5227 120.6 66.032C120.365 65.5413 120.024 65.1573 119.576 64.88C119.128 64.6027 118.584 64.464 117.944 64.464C117.325 64.464 116.781 64.6027 116.312 64.88C115.864 65.1573 115.512 65.5413 115.256 66.032C115.021 66.5227 114.904 67.1093 114.904 67.792V78H110.104ZM149.839 78.384C147.983 78.384 146.372 77.9787 145.007 77.168C143.641 76.336 142.585 75.2267 141.839 73.84C141.092 72.4533 140.719 70.9173 140.719 69.232C140.719 67.4827 141.103 65.9253 141.871 64.56C142.66 63.1947 143.716 62.1173 145.039 61.328C146.361 60.5387 147.855 60.144 149.519 60.144C150.905 60.144 152.132 60.368 153.199 60.816C154.265 61.2427 155.161 61.8507 155.887 62.64C156.633 63.4293 157.199 64.3467 157.583 65.392C157.967 66.416 158.159 67.536 158.159 68.752C158.159 69.0933 158.137 69.4347 158.095 69.776C158.073 70.096 158.02 70.3733 157.935 70.608H144.847V67.088H155.215L152.943 68.752C153.156 67.8347 153.145 67.024 152.911 66.32C152.676 65.5947 152.26 65.0293 151.663 64.624C151.087 64.1973 150.372 63.984 149.519 63.984C148.687 63.984 147.972 64.1867 147.375 64.592C146.777 64.9973 146.329 65.5947 146.031 66.384C145.732 67.1733 145.615 68.1333 145.679 69.264C145.593 70.2453 145.711 71.1093 146.031 71.856C146.351 72.6027 146.841 73.1893 147.503 73.616C148.164 74.0213 148.964 74.224 149.903 74.224C150.756 74.224 151.481 74.0533 152.079 73.712C152.697 73.3707 153.177 72.9013 153.519 72.304L157.359 74.128C157.017 74.9813 156.473 75.728 155.727 76.368C155.001 77.008 154.137 77.5093 153.135 77.872C152.132 78.2133 151.033 78.384 149.839 78.384ZM178.351 78.192C176.239 78.192 174.596 77.6267 173.423 76.496C172.271 75.344 171.695 73.744 171.695 71.696V64.688H168.751V60.528H168.911C169.807 60.528 170.49 60.304 170.959 59.856C171.45 59.408 171.695 58.736 171.695 57.84V56.56H176.495V60.528H180.591V64.688H176.495V71.376C176.495 71.9733 176.602 72.4747 176.815 72.88C177.028 73.264 177.359 73.552 177.807 73.744C178.255 73.936 178.81 74.032 179.471 74.032C179.62 74.032 179.791 74.0213 179.983 74C180.175 73.9787 180.378 73.9573 180.591 73.936V78C180.271 78.0427 179.908 78.0853 179.503 78.128C179.098 78.1707 178.714 78.192 178.351 78.192ZM193.676 78.384C191.948 78.384 190.369 77.9893 188.94 77.2C187.532 76.4107 186.401 75.3333 185.548 73.968C184.716 72.5813 184.3 71.0133 184.3 69.264C184.3 67.4933 184.716 65.9253 185.548 64.56C186.401 63.1947 187.532 62.1173 188.94 61.328C190.369 60.5387 191.948 60.144 193.676 60.144C195.404 60.144 196.972 60.5387 198.38 61.328C199.788 62.1173 200.908 63.1947 201.74 64.56C202.593 65.9253 203.02 67.4933 203.02 69.264C203.02 71.0133 202.593 72.5813 201.74 73.968C200.908 75.3333 199.788 76.4107 198.38 77.2C196.972 77.9893 195.404 78.384 193.676 78.384ZM193.676 74.064C194.55 74.064 195.308 73.8613 195.948 73.456C196.609 73.0507 197.121 72.4853 197.484 71.76C197.868 71.0347 198.06 70.2027 198.06 69.264C198.06 68.3253 197.868 67.504 197.484 66.8C197.121 66.0747 196.609 65.5093 195.948 65.104C195.308 64.6773 194.55 64.464 193.676 64.464C192.801 64.464 192.033 64.6773 191.372 65.104C190.71 65.5093 190.188 66.0747 189.804 66.8C189.441 67.504 189.26 68.3253 189.26 69.264C189.26 70.2027 189.441 71.0347 189.804 71.76C190.188 72.4853 190.71 73.0507 191.372 73.456C192.033 73.8613 192.801 74.064 193.676 74.064ZM2.112 118V94.16H12.192C13.8347 94.16 15.2427 94.4373 16.416 94.992C17.5893 95.5467 18.4853 96.3467 19.104 97.392C19.7227 98.416 20.032 99.664 20.032 101.136C20.032 102.181 19.744 103.184 19.168 104.144C18.592 105.083 17.6427 105.872 16.32 106.512V104.08C17.5787 104.571 18.5493 105.157 19.232 105.84C19.9147 106.523 20.384 107.269 20.64 108.08C20.896 108.869 21.024 109.701 21.024 110.576C21.024 112.923 20.2453 114.747 18.688 116.048C17.1307 117.349 14.9653 118 12.192 118H2.112ZM7.072 113.68H12.768C13.7707 113.68 14.5707 113.392 15.168 112.816C15.7653 112.24 16.064 111.493 16.064 110.576C16.064 109.637 15.7653 108.88 15.168 108.304C14.5707 107.728 13.7707 107.44 12.768 107.44H7.072V113.68ZM7.072 103.12H12.544C13.312 103.12 13.92 102.907 14.368 102.48C14.8373 102.032 15.072 101.445 15.072 100.72C15.072 99.9947 14.8373 99.4187 14.368 98.992C13.92 98.544 13.312 98.32 12.544 98.32H7.072V103.12ZM33.8698 118.384C32.0138 118.384 30.4031 117.979 29.0378 117.168C27.6724 116.336 26.6164 115.227 25.8698 113.84C25.1231 112.453 24.7498 110.917 24.7498 109.232C24.7498 107.483 25.1338 105.925 25.9018 104.56C26.6911 103.195 27.7471 102.117 29.0698 101.328C30.3924 100.539 31.8858 100.144 33.5498 100.144C34.9364 100.144 36.1631 100.368 37.2298 100.816C38.2964 101.243 39.1924 101.851 39.9178 102.64C40.6644 103.429 41.2298 104.347 41.6138 105.392C41.9978 106.416 42.1898 107.536 42.1898 108.752C42.1898 109.093 42.1684 109.435 42.1258 109.776C42.1044 110.096 42.0511 110.373 41.9658 110.608H28.8778V107.088H39.2458L36.9738 108.752C37.1871 107.835 37.1764 107.024 36.9418 106.32C36.7071 105.595 36.2911 105.029 35.6938 104.624C35.1178 104.197 34.4031 103.984 33.5498 103.984C32.7178 103.984 32.0031 104.187 31.4058 104.592C30.8084 104.997 30.3604 105.595 30.0618 106.384C29.7631 107.173 29.6458 108.133 29.7098 109.264C29.6244 110.245 29.7418 111.109 30.0618 111.856C30.3818 112.603 30.8724 113.189 31.5338 113.616C32.1951 114.021 32.9951 114.224 33.9338 114.224C34.7871 114.224 35.5124 114.053 36.1098 113.712C36.7284 113.371 37.2084 112.901 37.5498 112.304L41.3898 114.128C41.0484 114.981 40.5044 115.728 39.7578 116.368C39.0324 117.008 38.1684 117.509 37.1658 117.872C36.1631 118.213 35.0644 118.384 33.8698 118.384ZM55.0323 118.384C53.1763 118.384 51.5656 117.979 50.2003 117.168C48.8349 116.336 47.7789 115.227 47.0323 113.84C46.2856 112.453 45.9123 110.917 45.9123 109.232C45.9123 107.483 46.2963 105.925 47.0643 104.56C47.8536 103.195 48.9096 102.117 50.2323 101.328C51.5549 100.539 53.0483 100.144 54.7123 100.144C56.0989 100.144 57.3256 100.368 58.3923 100.816C59.4589 101.243 60.3549 101.851 61.0803 102.64C61.8269 103.429 62.3923 104.347 62.7763 105.392C63.1603 106.416 63.3523 107.536 63.3523 108.752C63.3523 109.093 63.3309 109.435 63.2883 109.776C63.2669 110.096 63.2136 110.373 63.1283 110.608H50.0403V107.088H60.4083L58.1363 108.752C58.3496 107.835 58.3389 107.024 58.1043 106.32C57.8696 105.595 57.4536 105.029 56.8563 104.624C56.2803 104.197 55.5656 103.984 54.7123 103.984C53.8803 103.984 53.1656 104.187 52.5683 104.592C51.9709 104.997 51.5229 105.595 51.2243 106.384C50.9256 107.173 50.8083 108.133 50.8723 109.264C50.7869 110.245 50.9043 111.109 51.2243 111.856C51.5443 112.603 52.0349 113.189 52.6963 113.616C53.3576 114.021 54.1576 114.224 55.0963 114.224C55.9496 114.224 56.6749 114.053 57.2723 113.712C57.8909 113.371 58.3709 112.901 58.7123 112.304L62.5523 114.128C62.2109 114.981 61.6669 115.728 60.9203 116.368C60.1949 117.008 59.3309 117.509 58.3283 117.872C57.3256 118.213 56.2269 118.384 55.0323 118.384ZM75.4808 118V94.16H84.6328C86.2754 94.16 87.7261 94.448 88.9848 95.024C90.2648 95.6 91.2674 96.4533 91.9928 97.584C92.7181 98.7147 93.0808 100.112 93.0808 101.776C93.0808 103.397 92.7074 104.773 91.9608 105.904C91.2354 107.035 90.2328 107.899 88.9528 108.496C87.6941 109.072 86.2541 109.36 84.6328 109.36H80.4408V118H75.4808ZM80.4408 105.04H84.6648C85.3688 105.04 85.9768 104.901 86.4888 104.624C87.0008 104.347 87.3954 103.963 87.6728 103.472C87.9714 102.981 88.1208 102.416 88.1208 101.776C88.1208 101.115 87.9714 100.539 87.6728 100.048C87.3954 99.5573 87.0008 99.1733 86.4888 98.896C85.9768 98.6187 85.3688 98.48 84.6648 98.48H80.4408V105.04ZM97.51 118V93.776H102.31V118H97.51ZM113.694 118.384C112.286 118.384 111.081 118.085 110.078 117.488C109.097 116.869 108.35 116.016 107.838 114.928C107.326 113.84 107.07 112.571 107.07 111.12V100.528H111.87V110.736C111.87 111.397 111.998 111.984 112.254 112.496C112.532 112.987 112.916 113.371 113.406 113.648C113.897 113.925 114.452 114.064 115.07 114.064C115.71 114.064 116.265 113.925 116.734 113.648C117.225 113.371 117.598 112.987 117.854 112.496C118.132 111.984 118.27 111.397 118.27 110.736V100.528H123.07V118H118.59V114.544L118.846 115.312C118.441 116.357 117.78 117.136 116.862 117.648C115.966 118.139 114.91 118.384 113.694 118.384ZM135.027 118.384C133.107 118.384 131.432 117.936 130.003 117.04C128.595 116.123 127.635 114.896 127.123 113.36L130.643 111.696C131.091 112.635 131.699 113.371 132.467 113.904C133.235 114.437 134.088 114.704 135.027 114.704C135.709 114.704 136.232 114.565 136.595 114.288C136.957 114.011 137.139 113.627 137.139 113.136C137.139 112.88 137.075 112.667 136.947 112.496C136.819 112.304 136.627 112.133 136.371 111.984C136.115 111.835 135.795 111.707 135.411 111.6L132.435 110.768C131.005 110.363 129.907 109.712 129.139 108.816C128.371 107.899 127.987 106.821 127.987 105.584C127.987 104.496 128.264 103.547 128.819 102.736C129.373 101.925 130.152 101.296 131.155 100.848C132.157 100.379 133.309 100.144 134.611 100.144C136.317 100.144 137.811 100.549 139.091 101.36C140.392 102.149 141.309 103.269 141.843 104.72L138.291 106.384C138.035 105.659 137.565 105.083 136.883 104.656C136.221 104.208 135.464 103.984 134.611 103.984C133.992 103.984 133.501 104.112 133.139 104.368C132.797 104.624 132.627 104.976 132.627 105.424C132.627 105.659 132.691 105.872 132.819 106.064C132.947 106.256 133.149 106.427 133.427 106.576C133.725 106.725 134.088 106.864 134.515 106.992L137.299 107.824C138.749 108.251 139.859 108.901 140.627 109.776C141.395 110.629 141.779 111.685 141.779 112.944C141.779 114.032 141.491 114.981 140.915 115.792C140.36 116.603 139.581 117.243 138.579 117.712C137.576 118.16 136.392 118.384 135.027 118.384ZM152.189 118L160.253 94.16H166.845L174.909 118H169.501L167.901 113.136H159.165L157.565 118H152.189ZM160.541 108.816H166.525L162.877 97.552H164.221L160.541 108.816ZM186.586 118.384C184.837 118.384 183.258 117.989 181.85 117.2C180.463 116.389 179.354 115.291 178.522 113.904C177.711 112.517 177.306 110.96 177.306 109.232C177.306 107.504 177.711 105.957 178.522 104.592C179.333 103.205 180.442 102.117 181.85 101.328C183.258 100.539 184.837 100.144 186.586 100.144C187.887 100.144 189.093 100.368 190.202 100.816C191.311 101.264 192.261 101.893 193.05 102.704C193.839 103.493 194.405 104.432 194.746 105.52L190.586 107.312C190.287 106.437 189.775 105.744 189.05 105.232C188.346 104.72 187.525 104.464 186.586 104.464C185.754 104.464 185.007 104.667 184.346 105.072C183.706 105.477 183.194 106.043 182.81 106.768C182.447 107.493 182.266 108.325 182.266 109.264C182.266 110.203 182.447 111.035 182.81 111.76C183.194 112.485 183.706 113.051 184.346 113.456C185.007 113.861 185.754 114.064 186.586 114.064C187.546 114.064 188.378 113.808 189.082 113.296C189.786 112.784 190.287 112.091 190.586 111.216L194.746 113.04C194.426 114.064 193.871 114.981 193.082 115.792C192.293 116.603 191.343 117.243 190.234 117.712C189.125 118.16 187.909 118.384 186.586 118.384ZM204.581 118.384C203.322 118.384 202.234 118.181 201.317 117.776C200.399 117.371 199.695 116.795 199.205 116.048C198.714 115.28 198.469 114.373 198.469 113.328C198.469 112.347 198.693 111.483 199.141 110.736C199.589 109.968 200.271 109.328 201.189 108.816C202.127 108.304 203.29 107.941 204.677 107.728L210.021 106.864V110.384L205.541 111.184C204.858 111.312 204.335 111.536 203.973 111.856C203.61 112.155 203.429 112.592 203.429 113.168C203.429 113.701 203.631 114.117 204.037 114.416C204.442 114.715 204.943 114.864 205.541 114.864C206.33 114.864 207.023 114.693 207.621 114.352C208.218 114.011 208.677 113.552 208.997 112.976C209.338 112.379 209.509 111.728 209.509 111.024V106.48C209.509 105.819 209.242 105.264 208.709 104.816C208.197 104.368 207.493 104.144 206.597 104.144C205.743 104.144 204.986 104.379 204.325 104.848C203.685 105.317 203.215 105.936 202.917 106.704L199.077 104.88C199.418 103.899 199.962 103.056 200.709 102.352C201.455 101.648 202.351 101.104 203.397 100.72C204.442 100.336 205.583 100.144 206.821 100.144C208.293 100.144 209.594 100.411 210.725 100.944C211.855 101.477 212.73 102.224 213.349 103.184C213.989 104.123 214.309 105.221 214.309 106.48V118H209.829V115.184L210.917 114.992C210.405 115.76 209.839 116.4 209.221 116.912C208.602 117.403 207.909 117.765 207.141 118C206.373 118.256 205.519 118.384 204.581 118.384ZM227.653 118.384C225.946 118.384 224.421 117.979 223.077 117.168C221.733 116.357 220.666 115.259 219.877 113.872C219.109 112.485 218.725 110.949 218.725 109.264C218.725 107.557 219.119 106.021 219.909 104.656C220.698 103.269 221.765 102.171 223.109 101.36C224.453 100.549 225.957 100.144 227.621 100.144C228.901 100.144 230.031 100.389 231.013 100.88C232.015 101.349 232.805 102.021 233.381 102.896L232.645 103.856V93.776H237.445V118H232.965V114.8L233.413 115.792C232.815 116.645 232.005 117.296 230.981 117.744C229.957 118.171 228.847 118.384 227.653 118.384ZM228.229 114.064C229.103 114.064 229.871 113.861 230.533 113.456C231.194 113.051 231.706 112.485 232.069 111.76C232.453 111.035 232.645 110.203 232.645 109.264C232.645 108.325 232.453 107.493 232.069 106.768C231.706 106.043 231.194 105.477 230.533 105.072C229.871 104.667 229.103 104.464 228.229 104.464C227.354 104.464 226.565 104.677 225.861 105.104C225.178 105.509 224.645 106.075 224.261 106.8C223.877 107.504 223.685 108.325 223.685 109.264C223.685 110.203 223.877 111.035 224.261 111.76C224.645 112.485 225.178 113.051 225.861 113.456C226.565 113.861 227.354 114.064 228.229 114.064ZM250.976 118.384C249.12 118.384 247.509 117.979 246.144 117.168C244.779 116.336 243.723 115.227 242.976 113.84C242.229 112.453 241.856 110.917 241.856 109.232C241.856 107.483 242.24 105.925 243.008 104.56C243.797 103.195 244.853 102.117 246.176 101.328C247.499 100.539 248.992 100.144 250.656 100.144C252.043 100.144 253.269 100.368 254.336 100.816C255.403 101.243 256.299 101.851 257.024 102.64C257.771 103.429 258.336 104.347 258.72 105.392C259.104 106.416 259.296 107.536 259.296 108.752C259.296 109.093 259.275 109.435 259.232 109.776C259.211 110.096 259.157 110.373 259.072 110.608H245.984V107.088H256.352L254.08 108.752C254.293 107.835 254.283 107.024 254.048 106.32C253.813 105.595 253.397 105.029 252.8 104.624C252.224 104.197 251.509 103.984 250.656 103.984C249.824 103.984 249.109 104.187 248.512 104.592C247.915 104.997 247.467 105.595 247.168 106.384C246.869 107.173 246.752 108.133 246.816 109.264C246.731 110.245 246.848 111.109 247.168 111.856C247.488 112.603 247.979 113.189 248.64 113.616C249.301 114.021 250.101 114.224 251.04 114.224C251.893 114.224 252.619 114.053 253.216 113.712C253.835 113.371 254.315 112.901 254.656 112.304L258.496 114.128C258.155 114.981 257.611 115.728 256.864 116.368C256.139 117.008 255.275 117.509 254.272 117.872C253.269 118.213 252.171 118.384 250.976 118.384ZM263.722 118V100.528H268.202V104.784L267.722 104.08C267.978 102.736 268.597 101.744 269.578 101.104C270.56 100.464 271.733 100.144 273.098 100.144C274.549 100.144 275.818 100.517 276.906 101.264C278.016 101.989 278.709 102.971 278.986 104.208L277.61 104.336C278.186 102.907 279.008 101.851 280.074 101.168C281.141 100.485 282.389 100.144 283.818 100.144C285.077 100.144 286.186 100.421 287.146 100.976C288.128 101.531 288.896 102.309 289.45 103.312C290.005 104.293 290.282 105.445 290.282 106.768V118H285.482V107.792C285.482 107.109 285.354 106.523 285.098 106.032C284.864 105.541 284.522 105.157 284.074 104.88C283.626 104.603 283.082 104.464 282.442 104.464C281.824 104.464 281.28 104.603 280.81 104.88C280.362 105.157 280.01 105.541 279.754 106.032C279.52 106.523 279.402 107.109 279.402 107.792V118H274.602V107.792C274.602 107.109 274.474 106.523 274.218 106.032C273.984 105.541 273.642 105.157 273.194 104.88C272.746 104.603 272.202 104.464 271.562 104.464C270.944 104.464 270.4 104.603 269.93 104.88C269.482 105.157 269.13 105.541 268.874 106.032C268.64 106.523 268.522 107.109 268.522 107.792V118H263.722ZM297.449 125.104C296.937 125.104 296.435 125.061 295.945 124.976C295.475 124.891 295.059 124.752 294.697 124.56V120.624C294.995 120.709 295.347 120.784 295.753 120.848C296.158 120.912 296.531 120.944 296.873 120.944C297.811 120.944 298.483 120.72 298.889 120.272C299.294 119.824 299.625 119.312 299.881 118.736L301.065 116.016L301.001 120.016L293.321 100.528H298.473L303.561 114.384H301.641L306.729 100.528H311.881L304.393 119.632C303.923 120.848 303.347 121.861 302.665 122.672C301.982 123.483 301.203 124.091 300.329 124.496C299.475 124.901 298.515 125.104 297.449 125.104Z" fill="black"/>
<path d="M5.068 137.144C4.5 137.144 3.984 137.036 3.52 136.82C3.056 136.604 2.664 136.316 2.344 135.956C2.024 135.588 1.796 135.184 1.66 134.744L2.524 134.42C2.732 135.028 3.056 135.492 3.496 135.812C3.936 136.124 4.46 136.28 5.068 136.28C5.452 136.28 5.788 136.22 6.076 136.1C6.372 135.972 6.6 135.796 6.76 135.572C6.92 135.348 7 135.088 7 134.792C7 134.352 6.88 134.012 6.64 133.772C6.4 133.532 6.056 133.348 5.608 133.22L4 132.74C3.368 132.556 2.88 132.248 2.536 131.816C2.2 131.384 2.032 130.892 2.032 130.34C2.032 129.868 2.148 129.452 2.38 129.092C2.612 128.724 2.928 128.436 3.328 128.228C3.736 128.02 4.196 127.916 4.708 127.916C5.244 127.916 5.724 128.016 6.148 128.216C6.58 128.408 6.944 128.664 7.24 128.984C7.536 129.304 7.748 129.66 7.876 130.052L7.036 130.388C6.844 129.86 6.544 129.46 6.136 129.188C5.736 128.916 5.264 128.78 4.72 128.78C4.376 128.78 4.072 128.84 3.808 128.96C3.552 129.08 3.352 129.252 3.208 129.476C3.064 129.7 2.992 129.964 2.992 130.268C2.992 130.636 3.108 130.968 3.34 131.264C3.572 131.552 3.928 131.768 4.408 131.912L5.824 132.332C6.528 132.54 7.06 132.84 7.42 133.232C7.78 133.624 7.96 134.116 7.96 134.708C7.96 135.188 7.836 135.612 7.588 135.98C7.348 136.34 7.008 136.624 6.568 136.832C6.136 137.04 5.636 137.144 5.068 137.144ZM9.92181 137V130.568H10.8218V137H9.92181ZM9.92181 129.38V128.06H10.8218V129.38H9.92181ZM15.952 139.64C15.512 139.64 15.104 139.572 14.728 139.436C14.36 139.3 14.04 139.112 13.768 138.872C13.504 138.64 13.3 138.368 13.156 138.056L13.984 137.612C14.112 137.916 14.34 138.18 14.668 138.404C14.996 138.628 15.416 138.74 15.928 138.74C16.32 138.74 16.68 138.664 17.008 138.512C17.336 138.36 17.6 138.136 17.8 137.84C18 137.544 18.1 137.18 18.1 136.748V135.32L18.244 135.452C18.02 135.916 17.688 136.276 17.248 136.532C16.808 136.78 16.328 136.904 15.808 136.904C15.208 136.904 14.668 136.76 14.188 136.472C13.708 136.184 13.328 135.796 13.048 135.308C12.776 134.812 12.64 134.264 12.64 133.664C12.64 133.056 12.776 132.508 13.048 132.02C13.328 131.532 13.704 131.144 14.176 130.856C14.656 130.568 15.2 130.424 15.808 130.424C16.328 130.424 16.8 130.544 17.224 130.784C17.656 131.024 17.996 131.348 18.244 131.756L18.1 132.008V130.568H19V136.748C19 137.3 18.868 137.792 18.604 138.224C18.348 138.664 17.988 139.008 17.524 139.256C17.068 139.512 16.544 139.64 15.952 139.64ZM15.856 136.004C16.272 136.004 16.648 135.9 16.984 135.692C17.32 135.476 17.588 135.192 17.788 134.84C17.996 134.48 18.1 134.088 18.1 133.664C18.1 133.24 17.996 132.852 17.788 132.5C17.588 132.14 17.32 131.856 16.984 131.648C16.648 131.432 16.272 131.324 15.856 131.324C15.432 131.324 15.048 131.432 14.704 131.648C14.36 131.856 14.088 132.136 13.888 132.488C13.696 132.84 13.6 133.232 13.6 133.664C13.6 134.088 13.696 134.48 13.888 134.84C14.088 135.192 14.356 135.476 14.692 135.692C15.036 135.9 15.424 136.004 15.856 136.004ZM21.0893 137V130.568H21.9893V131.816L21.7853 131.768C21.9453 131.352 22.2053 131.024 22.5653 130.784C22.9333 130.544 23.3573 130.424 23.8373 130.424C24.2933 130.424 24.7013 130.528 25.0613 130.736C25.4293 130.944 25.7173 131.232 25.9253 131.6C26.1413 131.96 26.2493 132.368 26.2493 132.824V137H25.3493V133.172C25.3493 132.78 25.2773 132.448 25.1333 132.176C24.9973 131.904 24.8013 131.696 24.5453 131.552C24.2973 131.4 24.0093 131.324 23.6813 131.324C23.3533 131.324 23.0613 131.4 22.8053 131.552C22.5493 131.696 22.3493 131.908 22.2053 132.188C22.0613 132.46 21.9893 132.788 21.9893 133.172V137H21.0893ZM30.6193 137V128.06H31.5793V137H30.6193ZM33.7976 137V130.568H34.6976V131.816L34.4936 131.768C34.6536 131.352 34.9136 131.024 35.2736 130.784C35.6416 130.544 36.0656 130.424 36.5456 130.424C37.0016 130.424 37.4096 130.528 37.7696 130.736C38.1376 130.944 38.4256 131.232 38.6336 131.6C38.8496 131.96 38.9576 132.368 38.9576 132.824V137H38.0576V133.172C38.0576 132.78 37.9856 132.448 37.8416 132.176C37.7056 131.904 37.5096 131.696 37.2536 131.552C37.0056 131.4 36.7176 131.324 36.3896 131.324C36.0616 131.324 35.7696 131.4 35.5136 131.552C35.2576 131.696 35.0576 131.908 34.9136 132.188C34.7696 132.46 34.6976 132.788 34.6976 133.172V137H33.7976ZM44.8756 137V128.96H42.4036V128.06H48.2836V128.96H45.8356V137H44.8756ZM51.7444 137.144C51.1364 137.144 50.5844 137 50.0884 136.712C49.5924 136.416 49.1964 136.016 48.9004 135.512C48.6124 135 48.4684 134.42 48.4684 133.772C48.4684 133.132 48.6124 132.56 48.9004 132.056C49.1884 131.552 49.5764 131.156 50.0644 130.868C50.5604 130.572 51.1204 130.424 51.7444 130.424C52.3684 130.424 52.9244 130.568 53.4124 130.856C53.9084 131.144 54.2964 131.54 54.5764 132.044C54.8644 132.548 55.0084 133.124 55.0084 133.772C55.0084 134.428 54.8604 135.012 54.5644 135.524C54.2684 136.028 53.8724 136.424 53.3764 136.712C52.8884 137 52.3444 137.144 51.7444 137.144ZM51.7444 136.244C52.1764 136.244 52.5644 136.136 52.9084 135.92C53.2604 135.704 53.5364 135.408 53.7364 135.032C53.9444 134.656 54.0484 134.236 54.0484 133.772C54.0484 133.308 53.9444 132.892 53.7364 132.524C53.5364 132.156 53.2604 131.864 52.9084 131.648C52.5644 131.432 52.1764 131.324 51.7444 131.324C51.3124 131.324 50.9204 131.432 50.5684 131.648C50.2244 131.864 49.9484 132.156 49.7404 132.524C49.5324 132.892 49.4284 133.308 49.4284 133.772C49.4284 134.236 49.5324 134.656 49.7404 135.032C49.9484 135.408 50.2244 135.704 50.5684 135.92C50.9204 136.136 51.3124 136.244 51.7444 136.244ZM58.3228 137L61.5868 128.06H62.6188L65.8828 137H64.8748L64.1068 134.816H60.1108L59.3308 137H58.3228ZM60.4228 133.916H63.7708L61.9588 128.78H62.2468L60.4228 133.916ZM69.8885 137.144C69.2565 137.144 68.7005 136.996 68.2205 136.7C67.7405 136.404 67.3645 136.004 67.0925 135.5C66.8205 134.988 66.6845 134.412 66.6845 133.772C66.6845 133.132 66.8205 132.56 67.0925 132.056C67.3645 131.552 67.7405 131.156 68.2205 130.868C68.7005 130.572 69.2565 130.424 69.8885 130.424C70.2885 130.424 70.6645 130.496 71.0165 130.64C71.3685 130.784 71.6805 130.98 71.9525 131.228C72.2245 131.468 72.4285 131.748 72.5645 132.068L71.7485 132.488C71.5885 132.144 71.3445 131.864 71.0165 131.648C70.6885 131.432 70.3125 131.324 69.8885 131.324C69.4645 131.324 69.0805 131.432 68.7365 131.648C68.4005 131.856 68.1325 132.148 67.9325 132.524C67.7405 132.892 67.6445 133.312 67.6445 133.784C67.6445 134.248 67.7405 134.668 67.9325 135.044C68.1325 135.412 68.4005 135.704 68.7365 135.92C69.0805 136.136 69.4645 136.244 69.8885 136.244C70.3125 136.244 70.6845 136.136 71.0045 135.92C71.3325 135.704 71.5805 135.416 71.7485 135.056L72.5645 135.5C72.4285 135.812 72.2245 136.092 71.9525 136.34C71.6805 136.588 71.3685 136.784 71.0165 136.928C70.6645 137.072 70.2885 137.144 69.8885 137.144ZM77.3238 137.144C76.6918 137.144 76.1358 136.996 75.6558 136.7C75.1758 136.404 74.7998 136.004 74.5278 135.5C74.2558 134.988 74.1198 134.412 74.1198 133.772C74.1198 133.132 74.2558 132.56 74.5278 132.056C74.7998 131.552 75.1758 131.156 75.6558 130.868C76.1358 130.572 76.6918 130.424 77.3238 130.424C77.7238 130.424 78.0998 130.496 78.4518 130.64C78.8038 130.784 79.1158 130.98 79.3878 131.228C79.6598 131.468 79.8638 131.748 79.9998 132.068L79.1838 132.488C79.0238 132.144 78.7798 131.864 78.4518 131.648C78.1238 131.432 77.7478 131.324 77.3238 131.324C76.8998 131.324 76.5158 131.432 76.1718 131.648C75.8358 131.856 75.5678 132.148 75.3678 132.524C75.1758 132.892 75.0798 133.312 75.0798 133.784C75.0798 134.248 75.1758 134.668 75.3678 135.044C75.5678 135.412 75.8358 135.704 76.1718 135.92C76.5158 136.136 76.8998 136.244 77.3238 136.244C77.7478 136.244 78.1198 136.136 78.4398 135.92C78.7678 135.704 79.0158 135.416 79.1838 135.056L79.9998 135.5C79.8638 135.812 79.6598 136.092 79.3878 136.34C79.1158 136.588 78.8038 136.784 78.4518 136.928C78.0998 137.072 77.7238 137.144 77.3238 137.144ZM84.7472 137.144C84.1472 137.144 83.6032 137 83.1152 136.712C82.6352 136.416 82.2552 136.012 81.9752 135.5C81.6952 134.988 81.5552 134.408 81.5552 133.76C81.5552 133.112 81.6912 132.54 81.9632 132.044C82.2352 131.54 82.6032 131.144 83.0672 130.856C83.5392 130.568 84.0672 130.424 84.6512 130.424C85.1152 130.424 85.5272 130.512 85.8872 130.688C86.2552 130.856 86.5672 131.088 86.8232 131.384C87.0792 131.672 87.2752 132 87.4112 132.368C87.5472 132.728 87.6152 133.1 87.6152 133.484C87.6152 133.564 87.6112 133.656 87.6032 133.76C87.5952 133.856 87.5832 133.956 87.5672 134.06H82.1312V133.22H87.0512L86.6192 133.58C86.6912 133.14 86.6392 132.748 86.4632 132.404C86.2952 132.052 86.0512 131.776 85.7312 131.576C85.4112 131.368 85.0512 131.264 84.6512 131.264C84.2512 131.264 83.8792 131.368 83.5352 131.576C83.1992 131.784 82.9352 132.076 82.7432 132.452C82.5512 132.82 82.4752 133.26 82.5152 133.772C82.4752 134.284 82.5552 134.732 82.7552 135.116C82.9632 135.492 83.2432 135.784 83.5952 135.992C83.9552 136.2 84.3392 136.304 84.7472 136.304C85.2192 136.304 85.6152 136.192 85.9352 135.968C86.2552 135.744 86.5152 135.464 86.7152 135.128L87.4832 135.536C87.3552 135.824 87.1592 136.092 86.8952 136.34C86.6312 136.58 86.3152 136.776 85.9472 136.928C85.5872 137.072 85.1872 137.144 84.7472 137.144ZM91.674 137.144C91.058 137.144 90.518 136.988 90.054 136.676C89.59 136.364 89.254 135.94 89.046 135.404L89.802 135.044C89.986 135.436 90.242 135.748 90.57 135.98C90.906 136.212 91.274 136.328 91.674 136.328C92.058 136.328 92.382 136.236 92.646 136.052C92.91 135.86 93.042 135.612 93.042 135.308C93.042 135.084 92.978 134.908 92.85 134.78C92.722 134.644 92.574 134.54 92.406 134.468C92.238 134.396 92.09 134.344 91.962 134.312L91.038 134.048C90.446 133.88 90.018 133.644 89.754 133.34C89.49 133.036 89.358 132.684 89.358 132.284C89.358 131.908 89.454 131.58 89.646 131.3C89.838 131.02 90.098 130.804 90.426 130.652C90.754 130.5 91.118 130.424 91.518 130.424C92.062 130.424 92.554 130.568 92.994 130.856C93.442 131.136 93.758 131.528 93.942 132.032L93.174 132.392C93.014 132.032 92.782 131.752 92.478 131.552C92.182 131.344 91.85 131.24 91.482 131.24C91.122 131.24 90.834 131.332 90.618 131.516C90.402 131.7 90.294 131.932 90.294 132.212C90.294 132.428 90.35 132.6 90.462 132.728C90.574 132.856 90.702 132.952 90.846 133.016C90.998 133.08 91.13 133.128 91.242 133.16L92.31 133.472C92.83 133.624 93.234 133.86 93.522 134.18C93.818 134.5 93.966 134.876 93.966 135.308C93.966 135.66 93.866 135.976 93.666 136.256C93.474 136.536 93.206 136.756 92.862 136.916C92.518 137.068 92.122 137.144 91.674 137.144ZM98.0194 137.144C97.4034 137.144 96.8634 136.988 96.3994 136.676C95.9354 136.364 95.5994 135.94 95.3914 135.404L96.1474 135.044C96.3314 135.436 96.5874 135.748 96.9154 135.98C97.2514 136.212 97.6194 136.328 98.0194 136.328C98.4034 136.328 98.7274 136.236 98.9914 136.052C99.2554 135.86 99.3874 135.612 99.3874 135.308C99.3874 135.084 99.3234 134.908 99.1954 134.78C99.0674 134.644 98.9194 134.54 98.7514 134.468C98.5834 134.396 98.4354 134.344 98.3074 134.312L97.3834 134.048C96.7914 133.88 96.3634 133.644 96.0994 133.34C95.8354 133.036 95.7034 132.684 95.7034 132.284C95.7034 131.908 95.7994 131.58 95.9914 131.3C96.1834 131.02 96.4434 130.804 96.7714 130.652C97.0994 130.5 97.4634 130.424 97.8634 130.424C98.4074 130.424 98.8994 130.568 99.3394 130.856C99.7874 131.136 100.103 131.528 100.287 132.032L99.5194 132.392C99.3594 132.032 99.1274 131.752 98.8234 131.552C98.5274 131.344 98.1954 131.24 97.8274 131.24C97.4674 131.24 97.1794 131.332 96.9634 131.516C96.7474 131.7 96.6394 131.932 96.6394 132.212C96.6394 132.428 96.6954 132.6 96.8074 132.728C96.9194 132.856 97.0474 132.952 97.1914 133.016C97.3434 133.08 97.4754 133.128 97.5874 133.16L98.6554 133.472C99.1754 133.624 99.5794 133.86 99.8674 134.18C100.163 134.5 100.311 134.876 100.311 135.308C100.311 135.66 100.211 135.976 100.011 136.256C99.8194 136.536 99.5514 136.756 99.2074 136.916C98.8634 137.068 98.4674 137.144 98.0194 137.144ZM106.752 137V132.848L103.62 128.06H104.688L107.424 132.224H107.04L109.764 128.06H110.832L107.712 132.848V137H106.752ZM113.945 137.144C113.337 137.144 112.785 137 112.289 136.712C111.793 136.416 111.397 136.016 111.101 135.512C110.813 135 110.669 134.42 110.669 133.772C110.669 133.132 110.813 132.56 111.101 132.056C111.389 131.552 111.777 131.156 112.265 130.868C112.761 130.572 113.321 130.424 113.945 130.424C114.569 130.424 115.125 130.568 115.613 130.856C116.109 131.144 116.497 131.54 116.777 132.044C117.065 132.548 117.209 133.124 117.209 133.772C117.209 134.428 117.061 135.012 116.765 135.524C116.469 136.028 116.073 136.424 115.577 136.712C115.089 137 114.545 137.144 113.945 137.144ZM113.945 136.244C114.377 136.244 114.765 136.136 115.109 135.92C115.461 135.704 115.737 135.408 115.937 135.032C116.145 134.656 116.249 134.236 116.249 133.772C116.249 133.308 116.145 132.892 115.937 132.524C115.737 132.156 115.461 131.864 115.109 131.648C114.765 131.432 114.377 131.324 113.945 131.324C113.513 131.324 113.121 131.432 112.769 131.648C112.425 131.864 112.149 132.156 111.941 132.524C111.733 132.892 111.629 133.308 111.629 133.772C111.629 134.236 111.733 134.656 111.941 135.032C112.149 135.408 112.425 135.704 112.769 135.92C113.121 136.136 113.513 136.244 113.945 136.244ZM121.317 137.144C120.869 137.144 120.461 137.04 120.093 136.832C119.725 136.616 119.433 136.32 119.217 135.944C119.009 135.56 118.905 135.12 118.905 134.624V130.568H119.805V134.516C119.805 134.86 119.873 135.164 120.009 135.428C120.153 135.684 120.349 135.884 120.597 136.028C120.853 136.172 121.145 136.244 121.473 136.244C121.801 136.244 122.093 136.172 122.349 136.028C122.605 135.876 122.805 135.664 122.949 135.392C123.093 135.112 123.165 134.78 123.165 134.396V130.568H124.065V137H123.165V135.752L123.369 135.8C123.217 136.216 122.957 136.544 122.589 136.784C122.221 137.024 121.797 137.144 121.317 137.144ZM126.155 137V130.568H127.055V131.624L126.935 131.468C127.087 131.164 127.315 130.924 127.619 130.748C127.931 130.572 128.307 130.484 128.747 130.484H129.155V131.384H128.591C128.127 131.384 127.755 131.528 127.475 131.816C127.195 132.104 127.055 132.512 127.055 133.04V137H126.155ZM132.861 137V128.06H135.933C136.517 128.06 137.029 128.176 137.469 128.408C137.909 128.632 138.249 128.952 138.489 129.368C138.737 129.776 138.861 130.252 138.861 130.796C138.861 131.34 138.737 131.816 138.489 132.224C138.249 132.632 137.909 132.952 137.469 133.184C137.037 133.408 136.525 133.52 135.933 133.52H133.821V137H132.861ZM133.821 132.62H135.981C136.365 132.62 136.701 132.548 136.989 132.404C137.277 132.252 137.501 132.04 137.661 131.768C137.821 131.488 137.901 131.16 137.901 130.784C137.901 130.408 137.821 130.084 137.661 129.812C137.501 129.54 137.277 129.332 136.989 129.188C136.701 129.036 136.365 128.96 135.981 128.96H133.821V132.62ZM143.374 137.144C142.774 137.144 142.23 137 141.742 136.712C141.262 136.416 140.882 136.012 140.602 135.5C140.322 134.988 140.182 134.408 140.182 133.76C140.182 133.112 140.318 132.54 140.59 132.044C140.862 131.54 141.23 131.144 141.694 130.856C142.166 130.568 142.694 130.424 143.278 130.424C143.742 130.424 144.154 130.512 144.514 130.688C144.882 130.856 145.194 131.088 145.45 131.384C145.706 131.672 145.902 132 146.038 132.368C146.174 132.728 146.242 133.1 146.242 133.484C146.242 133.564 146.238 133.656 146.23 133.76C146.222 133.856 146.21 133.956 146.194 134.06H140.758V133.22H145.678L145.246 133.58C145.318 133.14 145.266 132.748 145.09 132.404C144.922 132.052 144.678 131.776 144.358 131.576C144.038 131.368 143.678 131.264 143.278 131.264C142.878 131.264 142.506 131.368 142.162 131.576C141.826 131.784 141.562 132.076 141.37 132.452C141.178 132.82 141.102 133.26 141.142 133.772C141.102 134.284 141.182 134.732 141.382 135.116C141.59 135.492 141.87 135.784 142.222 135.992C142.582 136.2 142.966 136.304 143.374 136.304C143.846 136.304 144.242 136.192 144.562 135.968C144.882 135.744 145.142 135.464 145.342 135.128L146.11 135.536C145.982 135.824 145.786 136.092 145.522 136.34C145.258 136.58 144.942 136.776 144.574 136.928C144.214 137.072 143.814 137.144 143.374 137.144ZM148.069 137V130.568H148.969V131.624L148.849 131.468C149.001 131.164 149.229 130.924 149.533 130.748C149.845 130.572 150.221 130.484 150.661 130.484H151.069V131.384H150.505C150.041 131.384 149.669 131.528 149.389 131.816C149.109 132.104 148.969 132.512 148.969 133.04V137H148.069ZM154.595 137.144C153.979 137.144 153.439 136.988 152.975 136.676C152.511 136.364 152.175 135.94 151.967 135.404L152.723 135.044C152.907 135.436 153.163 135.748 153.491 135.98C153.827 136.212 154.195 136.328 154.595 136.328C154.979 136.328 155.303 136.236 155.567 136.052C155.831 135.86 155.963 135.612 155.963 135.308C155.963 135.084 155.899 134.908 155.771 134.78C155.643 134.644 155.495 134.54 155.327 134.468C155.159 134.396 155.011 134.344 154.883 134.312L153.959 134.048C153.367 133.88 152.939 133.644 152.675 133.34C152.411 133.036 152.279 132.684 152.279 132.284C152.279 131.908 152.375 131.58 152.567 131.3C152.759 131.02 153.019 130.804 153.347 130.652C153.675 130.5 154.039 130.424 154.439 130.424C154.983 130.424 155.475 130.568 155.915 130.856C156.363 131.136 156.679 131.528 156.863 132.032L156.095 132.392C155.935 132.032 155.703 131.752 155.399 131.552C155.103 131.344 154.771 131.24 154.403 131.24C154.043 131.24 153.755 131.332 153.539 131.516C153.323 131.7 153.215 131.932 153.215 132.212C153.215 132.428 153.271 132.6 153.383 132.728C153.495 132.856 153.623 132.952 153.767 133.016C153.919 133.08 154.051 133.128 154.163 133.16L155.231 133.472C155.751 133.624 156.155 133.86 156.443 134.18C156.739 134.5 156.887 134.876 156.887 135.308C156.887 135.66 156.787 135.976 156.587 136.256C156.395 136.536 156.127 136.756 155.783 136.916C155.439 137.068 155.043 137.144 154.595 137.144ZM161.721 137.144C161.113 137.144 160.561 137 160.065 136.712C159.569 136.416 159.173 136.016 158.877 135.512C158.589 135 158.445 134.42 158.445 133.772C158.445 133.132 158.589 132.56 158.877 132.056C159.165 131.552 159.553 131.156 160.041 130.868C160.537 130.572 161.097 130.424 161.721 130.424C162.345 130.424 162.901 130.568 163.389 130.856C163.885 131.144 164.273 131.54 164.553 132.044C164.841 132.548 164.985 133.124 164.985 133.772C164.985 134.428 164.837 135.012 164.541 135.524C164.245 136.028 163.849 136.424 163.353 136.712C162.865 137 162.321 137.144 161.721 137.144ZM161.721 136.244C162.153 136.244 162.541 136.136 162.885 135.92C163.237 135.704 163.513 135.408 163.713 135.032C163.921 134.656 164.025 134.236 164.025 133.772C164.025 133.308 163.921 132.892 163.713 132.524C163.513 132.156 163.237 131.864 162.885 131.648C162.541 131.432 162.153 131.324 161.721 131.324C161.289 131.324 160.897 131.432 160.545 131.648C160.201 131.864 159.925 132.156 159.717 132.524C159.509 132.892 159.405 133.308 159.405 133.772C159.405 134.236 159.509 134.656 159.717 135.032C159.925 135.408 160.201 135.704 160.545 135.92C160.897 136.136 161.289 136.244 161.721 136.244ZM166.812 137V130.568H167.712V131.816L167.508 131.768C167.668 131.352 167.928 131.024 168.288 130.784C168.656 130.544 169.08 130.424 169.56 130.424C170.016 130.424 170.424 130.528 170.784 130.736C171.152 130.944 171.44 131.232 171.648 131.6C171.864 131.96 171.972 132.368 171.972 132.824V137H171.072V133.172C171.072 132.78 171 132.448 170.856 132.176C170.72 131.904 170.524 131.696 170.268 131.552C170.02 131.4 169.732 131.324 169.404 131.324C169.076 131.324 168.784 131.4 168.528 131.552C168.272 131.696 168.072 131.908 167.928 132.188C167.784 132.46 167.712 132.788 167.712 133.172V137H166.812ZM175.791 137.144C175.383 137.144 175.019 137.068 174.699 136.916C174.379 136.756 174.127 136.54 173.943 136.268C173.759 135.996 173.667 135.684 173.667 135.332C173.667 134.996 173.739 134.692 173.883 134.42C174.027 134.14 174.251 133.904 174.555 133.712C174.859 133.52 175.247 133.384 175.719 133.304L178.239 132.884V133.7L175.935 134.084C175.471 134.164 175.135 134.312 174.927 134.528C174.727 134.744 174.627 135 174.627 135.296C174.627 135.584 174.739 135.828 174.963 136.028C175.195 136.228 175.491 136.328 175.851 136.328C176.291 136.328 176.675 136.236 177.003 136.052C177.331 135.86 177.587 135.604 177.771 135.284C177.955 134.964 178.047 134.608 178.047 134.216V132.584C178.047 132.2 177.907 131.888 177.627 131.648C177.347 131.408 176.983 131.288 176.535 131.288C176.143 131.288 175.799 131.388 175.503 131.588C175.207 131.78 174.987 132.032 174.843 132.344L174.027 131.9C174.147 131.628 174.335 131.38 174.591 131.156C174.855 130.932 175.155 130.756 175.491 130.628C175.827 130.492 176.175 130.424 176.535 130.424C177.007 130.424 177.423 130.516 177.783 130.7C178.151 130.884 178.435 131.14 178.635 131.468C178.843 131.788 178.947 132.16 178.947 132.584V137H178.047V135.716L178.179 135.848C178.067 136.088 177.891 136.308 177.651 136.508C177.419 136.7 177.143 136.856 176.823 136.976C176.511 137.088 176.167 137.144 175.791 137.144ZM181.038 137V127.916H181.938V137H181.038ZM184.02 137V130.568H184.92V137H184.02ZM184.02 129.38V128.06H184.92V129.38H184.02ZM186.342 137V136.22L190.218 131.12L190.386 131.468H186.546V130.568H191.178V131.348L187.314 136.448L187.146 136.1H191.202V137H186.342ZM195.561 137.144C194.961 137.144 194.417 137 193.929 136.712C193.449 136.416 193.069 136.012 192.789 135.5C192.509 134.988 192.369 134.408 192.369 133.76C192.369 133.112 192.505 132.54 192.777 132.044C193.049 131.54 193.417 131.144 193.881 130.856C194.353 130.568 194.881 130.424 195.465 130.424C195.929 130.424 196.341 130.512 196.701 130.688C197.069 130.856 197.381 131.088 197.637 131.384C197.893 131.672 198.089 132 198.225 132.368C198.361 132.728 198.429 133.1 198.429 133.484C198.429 133.564 198.425 133.656 198.417 133.76C198.409 133.856 198.397 133.956 198.381 134.06H192.945V133.22H197.865L197.433 133.58C197.505 133.14 197.453 132.748 197.277 132.404C197.109 132.052 196.865 131.776 196.545 131.576C196.225 131.368 195.865 131.264 195.465 131.264C195.065 131.264 194.693 131.368 194.349 131.576C194.013 131.784 193.749 132.076 193.557 132.452C193.365 132.82 193.289 133.26 193.329 133.772C193.289 134.284 193.369 134.732 193.569 135.116C193.777 135.492 194.057 135.784 194.409 135.992C194.769 136.2 195.153 136.304 195.561 136.304C196.033 136.304 196.429 136.192 196.749 135.968C197.069 135.744 197.329 135.464 197.529 135.128L198.297 135.536C198.169 135.824 197.973 136.092 197.709 136.34C197.445 136.58 197.129 136.776 196.761 136.928C196.401 137.072 196.001 137.144 195.561 137.144ZM203.16 137.144C202.56 137.144 202.02 137 201.54 136.712C201.06 136.416 200.68 136.016 200.4 135.512C200.128 135 199.992 134.424 199.992 133.784C199.992 133.136 200.128 132.56 200.4 132.056C200.68 131.552 201.056 131.156 201.528 130.868C202.008 130.572 202.552 130.424 203.16 130.424C203.712 130.424 204.204 130.544 204.636 130.784C205.068 131.024 205.408 131.348 205.656 131.756L205.512 132.008V127.916H206.412V137H205.512V135.56L205.656 135.692C205.432 136.156 205.096 136.516 204.648 136.772C204.208 137.02 203.712 137.144 203.16 137.144ZM203.208 136.244C203.64 136.244 204.028 136.136 204.372 135.92C204.724 135.704 205 135.412 205.2 135.044C205.408 134.668 205.512 134.248 205.512 133.784C205.512 133.32 205.408 132.904 205.2 132.536C205 132.16 204.724 131.864 204.372 131.648C204.028 131.432 203.64 131.324 203.208 131.324C202.784 131.324 202.4 131.432 202.056 131.648C201.712 131.864 201.44 132.156 201.24 132.524C201.048 132.892 200.952 133.312 200.952 133.784C200.952 134.248 201.048 134.668 201.24 135.044C201.44 135.412 201.708 135.704 202.044 135.92C202.388 136.136 202.776 136.244 203.208 136.244ZM210.911 137V128.06H211.871V136.1H215.831V137H210.911ZM220.322 137.144C219.722 137.144 219.178 137 218.69 136.712C218.21 136.416 217.83 136.012 217.55 135.5C217.27 134.988 217.13 134.408 217.13 133.76C217.13 133.112 217.266 132.54 217.538 132.044C217.81 131.54 218.178 131.144 218.642 130.856C219.114 130.568 219.642 130.424 220.226 130.424C220.69 130.424 221.102 130.512 221.462 130.688C221.83 130.856 222.142 131.088 222.398 131.384C222.654 131.672 222.85 132 222.986 132.368C223.122 132.728 223.19 133.1 223.19 133.484C223.19 133.564 223.186 133.656 223.178 133.76C223.17 133.856 223.158 133.956 223.142 134.06H217.706V133.22H222.626L222.194 133.58C222.266 133.14 222.214 132.748 222.038 132.404C221.87 132.052 221.626 131.776 221.306 131.576C220.986 131.368 220.626 131.264 220.226 131.264C219.826 131.264 219.454 131.368 219.11 131.576C218.774 131.784 218.51 132.076 218.318 132.452C218.126 132.82 218.05 133.26 218.09 133.772C218.05 134.284 218.13 134.732 218.33 135.116C218.538 135.492 218.818 135.784 219.17 135.992C219.53 136.2 219.914 136.304 220.322 136.304C220.794 136.304 221.19 136.192 221.51 135.968C221.83 135.744 222.09 135.464 222.29 135.128L223.058 135.536C222.93 135.824 222.734 136.092 222.47 136.34C222.206 136.58 221.89 136.776 221.522 136.928C221.162 137.072 220.762 137.144 220.322 137.144ZM226.759 137.144C226.351 137.144 225.987 137.068 225.667 136.916C225.347 136.756 225.095 136.54 224.911 136.268C224.727 135.996 224.635 135.684 224.635 135.332C224.635 134.996 224.707 134.692 224.851 134.42C224.995 134.14 225.219 133.904 225.523 133.712C225.827 133.52 226.215 133.384 226.687 133.304L229.207 132.884V133.7L226.903 134.084C226.439 134.164 226.103 134.312 225.895 134.528C225.695 134.744 225.595 135 225.595 135.296C225.595 135.584 225.707 135.828 225.931 136.028C226.163 136.228 226.459 136.328 226.819 136.328C227.259 136.328 227.643 136.236 227.971 136.052C228.299 135.86 228.555 135.604 228.739 135.284C228.923 134.964 229.015 134.608 229.015 134.216V132.584C229.015 132.2 228.875 131.888 228.595 131.648C228.315 131.408 227.951 131.288 227.503 131.288C227.111 131.288 226.767 131.388 226.471 131.588C226.175 131.78 225.955 132.032 225.811 132.344L224.995 131.9C225.115 131.628 225.303 131.38 225.559 131.156C225.823 130.932 226.123 130.756 226.459 130.628C226.795 130.492 227.143 130.424 227.503 130.424C227.975 130.424 228.391 130.516 228.751 130.7C229.119 130.884 229.403 131.14 229.603 131.468C229.811 131.788 229.915 132.16 229.915 132.584V137H229.015V135.716L229.147 135.848C229.035 136.088 228.859 136.308 228.619 136.508C228.387 136.7 228.111 136.856 227.791 136.976C227.479 137.088 227.135 137.144 226.759 137.144ZM232.007 137V130.568H232.907V131.624L232.787 131.468C232.939 131.164 233.167 130.924 233.471 130.748C233.783 130.572 234.159 130.484 234.599 130.484H235.007V131.384H234.443C233.979 131.384 233.607 131.528 233.327 131.816C233.047 132.104 232.907 132.512 232.907 133.04V137H232.007ZM236.301 137V130.568H237.201V131.816L236.997 131.768C237.157 131.352 237.417 131.024 237.777 130.784C238.145 130.544 238.569 130.424 239.049 130.424C239.505 130.424 239.913 130.528 240.273 130.736C240.641 130.944 240.929 131.232 241.137 131.6C241.353 131.96 241.461 132.368 241.461 132.824V137H240.561V133.172C240.561 132.78 240.489 132.448 240.345 132.176C240.209 131.904 240.013 131.696 239.757 131.552C239.509 131.4 239.221 131.324 238.893 131.324C238.565 131.324 238.273 131.4 238.017 131.552C237.761 131.696 237.561 131.908 237.417 132.188C237.273 132.46 237.201 132.788 237.201 133.172V137H236.301ZM243.42 137V130.568H244.32V137H243.42ZM243.42 129.38V128.06H244.32V129.38H243.42ZM246.402 137V130.568H247.302V131.816L247.098 131.768C247.258 131.352 247.518 131.024 247.878 130.784C248.246 130.544 248.67 130.424 249.15 130.424C249.606 130.424 250.014 130.528 250.374 130.736C250.742 130.944 251.03 131.232 251.238 131.6C251.454 131.96 251.562 132.368 251.562 132.824V137H250.662V133.172C250.662 132.78 250.59 132.448 250.446 132.176C250.31 131.904 250.114 131.696 249.858 131.552C249.61 131.4 249.322 131.324 248.994 131.324C248.666 131.324 248.374 131.4 248.118 131.552C247.862 131.696 247.662 131.908 247.518 132.188C247.374 132.46 247.302 132.788 247.302 133.172V137H246.402ZM256.569 139.64C256.129 139.64 255.721 139.572 255.345 139.436C254.977 139.3 254.657 139.112 254.385 138.872C254.121 138.64 253.917 138.368 253.773 138.056L254.601 137.612C254.729 137.916 254.957 138.18 255.285 138.404C255.613 138.628 256.033 138.74 256.545 138.74C256.937 138.74 257.297 138.664 257.625 138.512C257.953 138.36 258.217 138.136 258.417 137.84C258.617 137.544 258.717 137.18 258.717 136.748V135.32L258.861 135.452C258.637 135.916 258.305 136.276 257.865 136.532C257.425 136.78 256.945 136.904 256.425 136.904C255.825 136.904 255.285 136.76 254.805 136.472C254.325 136.184 253.945 135.796 253.665 135.308C253.393 134.812 253.257 134.264 253.257 133.664C253.257 133.056 253.393 132.508 253.665 132.02C253.945 131.532 254.321 131.144 254.793 130.856C255.273 130.568 255.817 130.424 256.425 130.424C256.945 130.424 257.417 130.544 257.841 130.784C258.273 131.024 258.613 131.348 258.861 131.756L258.717 132.008V130.568H259.617V136.748C259.617 137.3 259.485 137.792 259.221 138.224C258.965 138.664 258.605 139.008 258.141 139.256C257.685 139.512 257.161 139.64 256.569 139.64ZM256.473 136.004C256.889 136.004 257.265 135.9 257.601 135.692C257.937 135.476 258.205 135.192 258.405 134.84C258.613 134.48 258.717 134.088 258.717 133.664C258.717 133.24 258.613 132.852 258.405 132.5C258.205 132.14 257.937 131.856 257.601 131.648C257.265 131.432 256.889 131.324 256.473 131.324C256.049 131.324 255.665 131.432 255.321 131.648C254.977 131.856 254.705 132.136 254.505 132.488C254.313 132.84 254.217 133.232 254.217 133.664C254.217 134.088 254.313 134.48 254.505 134.84C254.705 135.192 254.973 135.476 255.309 135.692C255.653 135.9 256.041 136.004 256.473 136.004ZM263.722 137V136.04H264.202C264.65 136.04 265.002 135.908 265.258 135.644C265.514 135.372 265.642 135.004 265.642 134.54V128.06H266.602V134.54C266.602 135.044 266.502 135.48 266.302 135.848C266.11 136.216 265.834 136.5 265.474 136.7C265.114 136.9 264.69 137 264.202 137H263.722ZM271.831 137.144C271.223 137.144 270.671 137 270.175 136.712C269.679 136.416 269.283 136.016 268.987 135.512C268.699 135 268.555 134.42 268.555 133.772C268.555 133.132 268.699 132.56 268.987 132.056C269.275 131.552 269.663 131.156 270.151 130.868C270.647 130.572 271.207 130.424 271.831 130.424C272.455 130.424 273.011 130.568 273.499 130.856C273.995 131.144 274.383 131.54 274.663 132.044C274.951 132.548 275.095 133.124 275.095 133.772C275.095 134.428 274.947 135.012 274.651 135.524C274.355 136.028 273.959 136.424 273.463 136.712C272.975 137 272.431 137.144 271.831 137.144ZM271.831 136.244C272.263 136.244 272.651 136.136 272.995 135.92C273.347 135.704 273.623 135.408 273.823 135.032C274.031 134.656 274.135 134.236 274.135 133.772C274.135 133.308 274.031 132.892 273.823 132.524C273.623 132.156 273.347 131.864 272.995 131.648C272.651 131.432 272.263 131.324 271.831 131.324C271.399 131.324 271.007 131.432 270.655 131.648C270.311 131.864 270.035 132.156 269.827 132.524C269.619 132.892 269.515 133.308 269.515 133.772C269.515 134.236 269.619 134.656 269.827 135.032C270.035 135.408 270.311 135.704 270.655 135.92C271.007 136.136 271.399 136.244 271.831 136.244ZM279.203 137.144C278.755 137.144 278.347 137.04 277.979 136.832C277.611 136.616 277.319 136.32 277.103 135.944C276.895 135.56 276.791 135.12 276.791 134.624V130.568H277.691V134.516C277.691 134.86 277.759 135.164 277.895 135.428C278.039 135.684 278.235 135.884 278.483 136.028C278.739 136.172 279.031 136.244 279.359 136.244C279.687 136.244 279.979 136.172 280.235 136.028C280.491 135.876 280.691 135.664 280.835 135.392C280.979 135.112 281.051 134.78 281.051 134.396V130.568H281.951V137H281.051V135.752L281.255 135.8C281.103 136.216 280.843 136.544 280.475 136.784C280.107 137.024 279.683 137.144 279.203 137.144ZM284.042 137V130.568H284.942V131.624L284.822 131.468C284.974 131.164 285.202 130.924 285.506 130.748C285.818 130.572 286.194 130.484 286.634 130.484H287.042V131.384H286.478C286.014 131.384 285.642 131.528 285.362 131.816C285.082 132.104 284.942 132.512 284.942 133.04V137H284.042ZM288.336 137V130.568H289.236V131.816L289.032 131.768C289.192 131.352 289.452 131.024 289.812 130.784C290.18 130.544 290.604 130.424 291.084 130.424C291.54 130.424 291.948 130.528 292.308 130.736C292.676 130.944 292.964 131.232 293.172 131.6C293.388 131.96 293.496 132.368 293.496 132.824V137H292.596V133.172C292.596 132.78 292.524 132.448 292.38 132.176C292.244 131.904 292.048 131.696 291.792 131.552C291.544 131.4 291.256 131.324 290.928 131.324C290.6 131.324 290.308 131.4 290.052 131.552C289.796 131.696 289.596 131.908 289.452 132.188C289.308 132.46 289.236 132.788 289.236 133.172V137H288.336ZM298.383 137.144C297.783 137.144 297.239 137 296.751 136.712C296.271 136.416 295.891 136.012 295.611 135.5C295.331 134.988 295.191 134.408 295.191 133.76C295.191 133.112 295.327 132.54 295.599 132.044C295.871 131.54 296.239 131.144 296.703 130.856C297.175 130.568 297.703 130.424 298.287 130.424C298.751 130.424 299.163 130.512 299.523 130.688C299.891 130.856 300.203 131.088 300.459 131.384C300.715 131.672 300.911 132 301.047 132.368C301.183 132.728 301.251 133.1 301.251 133.484C301.251 133.564 301.247 133.656 301.239 133.76C301.231 133.856 301.219 133.956 301.203 134.06H295.767V133.22H300.687L300.255 133.58C300.327 133.14 300.275 132.748 300.099 132.404C299.931 132.052 299.687 131.776 299.367 131.576C299.047 131.368 298.687 131.264 298.287 131.264C297.887 131.264 297.515 131.368 297.171 131.576C296.835 131.784 296.571 132.076 296.379 132.452C296.187 132.82 296.111 133.26 296.151 133.772C296.111 134.284 296.191 134.732 296.391 135.116C296.599 135.492 296.879 135.784 297.231 135.992C297.591 136.2 297.975 136.304 298.383 136.304C298.855 136.304 299.251 136.192 299.571 135.968C299.891 135.744 300.151 135.464 300.351 135.128L301.119 135.536C300.991 135.824 300.795 136.092 300.531 136.34C300.267 136.58 299.951 136.776 299.583 136.928C299.223 137.072 298.823 137.144 298.383 137.144ZM303.21 139.64C303.082 139.64 302.95 139.628 302.814 139.604C302.686 139.588 302.558 139.556 302.43 139.508V138.668C302.51 138.676 302.61 138.688 302.73 138.704C302.858 138.728 302.986 138.74 303.114 138.74C303.506 138.74 303.806 138.656 304.014 138.488C304.222 138.328 304.426 138.016 304.626 137.552L305.034 136.592L305.01 137.384L302.286 130.568H303.258L305.49 136.196H305.238L307.458 130.568H308.454L305.514 137.816C305.386 138.128 305.222 138.424 305.022 138.704C304.83 138.984 304.586 139.208 304.29 139.376C303.994 139.552 303.634 139.64 303.21 139.64Z" fill="#6C6C6C"/>
<g clip-path="url(#clip0_91_270)">
<mask id="mask0_91_270" style="mask-type:luminance" maskUnits="userSpaceOnUse" x="218" y="22" width="36" height="59">
<path d="M218 22.3199H253.845V80.3006H218V22.3199Z" fill="white"/>
</mask>
<g mask="url(#mask0_91_270)">
<path d="M223.321 63.3093L223.308 22.8936C221.681 22.6133 219.929 22.4474 218.006 22.4474V67.7043C218.006 67.7043 239.306 70.0986 253.64 80.2536C247.017 72.9468 237.123 66.8811 223.321 63.3093Z" fill="#0D3F6D"/>
</g>
<path d="M234.072 54.4679L234.039 16.8244C232.381 16.0519 230.582 15.3732 228.61 14.8257V60.0835C228.61 60.0835 245.855 64.4757 257.69 77.4019C252.256 68.5285 244.563 59.5557 234.072 54.4679Z" fill="#7190B2"/>
<mask id="mask1_91_270" style="mask-type:luminance" maskUnits="userSpaceOnUse" x="276" y="22" width="36" height="59">
<path d="M276.155 22.3199H312V80.3006H276.155V22.3199Z" fill="white"/>
</mask>
<g mask="url(#mask1_91_270)">
<path d="M306.679 63.3093L306.692 22.8936C308.319 22.6133 310.071 22.4474 311.994 22.4474V67.7043C311.994 67.7043 290.694 70.0986 276.36 80.2536C282.983 72.9468 292.877 66.8811 306.679 63.3093Z" fill="#0D3F6D"/>
</g>
<path d="M295.928 54.4679L295.961 16.8244C297.619 16.0519 299.418 15.3732 301.39 14.8257V60.0835C301.39 60.0835 284.145 64.4757 272.311 77.4019C277.744 68.5285 285.437 59.5557 295.928 54.4679Z" fill="#7190B2"/>
<mask id="mask2_91_270" style="mask-type:luminance" maskUnits="userSpaceOnUse" x="239" y="6" width="52" height="73">
<path d="M239.307 6.68066H290.693V78.48H239.307V6.68066Z" fill="white"/>
</mask>
<g mask="url(#mask2_91_270)">
<path d="M265 32.2087C265 32.2087 257.962 18.0619 239.341 6.6825V51.9403C239.341 51.9403 253.272 60.7434 264.148 78.2953V54.5025C262.68 54.1884 261.591 52.6603 261.591 51.3487C261.591 49.7916 263.118 48.0947 265 48.0947C266.882 48.0947 268.408 49.7916 268.408 51.3487C268.408 52.6603 267.32 54.1884 265.852 54.5025V78.2953C276.727 60.7425 290.659 51.9403 290.659 51.9403V6.6825C272.038 18.0619 265 32.2087 265 32.2087Z" fill="#388EFF"/>
</g>
</g>
<defs>
<clipPath id="clip0_91_270">
<rect width="94" height="90" fill="white" transform="translate(218)"/>
</clipPath>
</defs>
</svg>
